<svg xmlns="http://www.w3.org/2000/svg" width="113" height="31" viewBox="0 0 113 31">
  <g id="Logo" transform="translate(-97 -63)">
    <path id="Path_1" data-name="Path 1" d="M15.414,5.053,10.276,0,0,10.106l10.276,10.1,5.138-5.051-5.138-5.053Z" transform="translate(97 63)" fill="#4f008c"/>
    <path id="Path_276" data-name="Path 276" d="M0,0,7.207.06l.06,7.207L.06,7.207Z" transform="translate(107.274 73.105) rotate(-45)" fill="#ff375e"/>
    <path id="Path_2" data-name="Path 2" d="M98.67,26.991h2.409c.208.8.9,1.26,2.054,1.26,1.2,0,1.945-.426,1.945-1.148s-.278-1.058-2.09-1.131c-3.087-.128-4.046-1.11-4.046-2.8,0-1.888,1.523-3.006,4.085-3.006,2.5,0,3.915,1.129,4.2,2.831h-2.351c-.225-.5-.717-.907-1.865-.907-1.092,0-1.77.372-1.77.984s.278.888,2.034.962c3.143.128,4.124,1.093,4.124,2.963,0,2-1.581,3.2-4.218,3.2-2.748,0-4.31-1.315-4.5-3.222" transform="translate(25.749 48.342)" fill="#4f008c"/>
    <path id="Path_3" data-name="Path 3" d="M140.351,28.161A2.656,2.656,0,0,0,143.08,25.2a2.735,2.735,0,1,0-5.458,0,2.663,2.663,0,0,0,2.729,2.963m0,2.074A4.86,4.86,0,0,1,135.23,25.2a5.123,5.123,0,0,1,10.243,0,4.863,4.863,0,0,1-5.121,5.037" transform="translate(-0.652 48.321)" fill="#4f008c"/>
    <path id="Path_4" data-name="Path 4" d="M181.553,19.71c-1.92,0-2.823-1.017-2.823-2.591V6.1h2.351V16.9c0,.547.278.779.736.779h1.017V19.71Z" transform="translate(-32.064 58.567)" fill="#4f008c"/>
    <path id="Path_5" data-name="Path 5" d="M206.611,30.647V29.5a4.154,4.154,0,0,1-3.257,1.427,3.366,3.366,0,0,1-3.5-3.7V21.15H202.2v5.515c0,1.241.584,2.148,1.865,2.148a2.931,2.931,0,0,0,2.543-1.64V21.15h2.354v9.5Z" transform="translate(-47.316 47.63)" fill="#4f008c"/>
    <path id="Path_6" data-name="Path 6" d="M244.392,22.326c-2.051,0-3.012-1.036-3.012-2.61V9.7h2.354v3.129h3.1v2.036h-3.1v4.553a.771.771,0,0,0,.848.872h2.251v2.036Z" transform="translate(-77.305 55.951)" fill="#4f008c"/>
    <path id="Path_7" data-name="Path 7" d="M269.329,6.1h2.354V8.453h-2.354Zm0,6.149H267.12V10.213h4.563v9.5h-2.354Z" transform="translate(-95.893 58.567)" fill="#4f008c"/>
    <path id="Path_8" data-name="Path 8" d="M295.991,28.161A2.656,2.656,0,0,0,298.72,25.2a2.735,2.735,0,1,0-5.458,0,2.665,2.665,0,0,0,2.729,2.963m0,2.074A4.86,4.86,0,0,1,290.87,25.2a5.123,5.123,0,0,1,10.243,0,4.863,4.863,0,0,1-5.121,5.037" transform="translate(-113.043 48.321)" fill="#4f008c"/>
    <path id="Path_9" data-name="Path 9" d="M334.94,29.952v-9.5h2.354v1.183a4.267,4.267,0,0,1,3.335-1.443,3.4,3.4,0,0,1,3.612,3.684v6.073H341.9v-5.5a1.88,1.88,0,0,0-1.976-2.148,3.061,3.061,0,0,0-2.634,1.64v6.013Z" transform="translate(-144.867 48.326)" fill="#4f008c"/>
    <path id="Path_10" data-name="Path 10" d="M375.23,26.991h2.409c.208.8.906,1.26,2.053,1.26,1.2,0,1.945-.426,1.945-1.148s-.278-1.058-2.09-1.131c-3.087-.128-4.049-1.11-4.049-2.8,0-1.888,1.526-3.006,4.085-3.006,2.5,0,3.915,1.129,4.2,2.831H381.43c-.225-.5-.714-.907-1.865-.907-1.092,0-1.767.372-1.767.984s.278.888,2.031.962c3.146.128,4.124,1.093,4.124,2.963,0,2-1.581,3.2-4.218,3.2-2.748,0-4.31-1.315-4.5-3.222" transform="translate(-173.961 48.342)" fill="#4f008c"/>
    <path id="Path_11" data-name="Path 11" d="M294.772,79.989a2.639,2.639,0,0,0,.108.771,1.984,1.984,0,0,0,.3.623,1.362,1.362,0,0,0,1.148.571,1.408,1.408,0,0,0,.647-.15,1.469,1.469,0,0,0,.492-.421,1.94,1.94,0,0,0,.311-.623,2.738,2.738,0,0,0,.106-.771,2.806,2.806,0,0,0-.106-.776,1.9,1.9,0,0,0-.311-.626,1.509,1.509,0,0,0-.492-.413,1.409,1.409,0,0,0-.647-.15,1.426,1.426,0,0,0-.661.15,1.462,1.462,0,0,0-.486.413,1.942,1.942,0,0,0-.3.626,2.692,2.692,0,0,0-.108.776m.022,2.771H293.78V74.52h1.014v3.616a1.91,1.91,0,0,1,.17-.273,1.782,1.782,0,0,1,.333-.353,1.87,1.87,0,0,1,1.237-.421,2.2,2.2,0,0,1,1.692.768,2.755,2.755,0,0,1,.52.916A3.677,3.677,0,0,1,298.937,80a3.605,3.605,0,0,1-.192,1.219,2.77,2.77,0,0,1-.52.913,2.2,2.2,0,0,1-1.692.768,1.918,1.918,0,0,1-.723-.123,2.107,2.107,0,0,1-.514-.273,1.712,1.712,0,0,1-.333-.331,1.982,1.982,0,0,1-.17-.257Z" transform="translate(-115.144 8.846)" fill="#4f008c"/>
    <path id="Path_12" data-name="Path 12" d="M316.541,92.356h-1.028l.995-2.484L314.26,84.43h1.131l1.648,4.108,1.648-4.108h1.05Z" transform="translate(-129.933 1.644)" fill="#4f008c"/>
    <path id="Path_13" data-name="Path 13" d="M354.944,82.73a2.214,2.214,0,0,0,1.364-.383V80.964a1.5,1.5,0,0,1-.873.257.738.738,0,0,1-.64-.209.711.711,0,0,1-.193-.635V74.52h-1.726v1.727h3.432v1.64h-3.432v2.9a1.935,1.935,0,0,0,.506,1.394,2.161,2.161,0,0,0,1.562.547m5.252,0a3.114,3.114,0,0,0,2.223-.82,2.822,2.822,0,0,0,.781-1.293l-1.534-.5a1.474,1.474,0,0,1-.4.664,1.5,1.5,0,0,1-1.067.4,1.66,1.66,0,0,1-1.159-.459,1.843,1.843,0,0,1-.481-1.317,1.821,1.821,0,0,1,.481-1.317,1.6,1.6,0,0,1,1.145-.448,1.383,1.383,0,0,1,1.028.385,1.634,1.634,0,0,1,.389.678l1.548-.511a2.866,2.866,0,0,0-.728-1.268,3.2,3.2,0,0,0-2.276-.855,3.337,3.337,0,1,0,.053,6.674m-10.974,0a2.925,2.925,0,0,0,2.054-.716,1.837,1.837,0,0,0,.556-1.342,1.723,1.723,0,0,0-.52-1.254,2.728,2.728,0,0,0-1.428-.689l-1-.194c-.414-.077-.65-.273-.65-.547,0-.372.364-.629.95-.629a1.241,1.241,0,0,1,.886.29.939.939,0,0,1,.247.525l1.442-.32a1.7,1.7,0,0,0-.534-1.06,2.9,2.9,0,0,0-2.054-.754,2.827,2.827,0,0,0-1.912.664,1.852,1.852,0,0,0-.609,1.38,1.59,1.59,0,0,0,.467,1.178,2.852,2.852,0,0,0,1.364.678l.989.23c.495.115.714.3.714.615,0,.4-.364.626-.961.626a1.366,1.366,0,0,1-1-.372.889.889,0,0,1-.261-.588l-1.481.32a1.811,1.811,0,0,0,.556,1.126,3.03,3.03,0,0,0,2.184.82" transform="translate(-153.2 8.846)" fill="#4f008c"/>
  </g>
</svg>
